<svg xmlns="http://www.w3.org/2000/svg" xmlns:xlink="http://www.w3.org/1999/xlink" width="80" height="42" viewBox="0 0 80 42" fill="none"><g opacity="1" transform="translate(0.0003662109375 0.0000012323595406371624)  rotate(0 39.68328795866944 20.675053973374183)"><g opacity="1" transform="translate(28.51680670419708 0)  rotate(0 13.856239090738319 12.808674660811809)"><path id="路径_1662" fill-rule="evenodd" style="fill:#049419" transform="translate(0 7.315602550510263)  rotate(0 5.503501341666947 9.086902515233533)" opacity="1" d="M0.53,0.14C0.2,0.32 0,0.67 0,1.05L0,11.79C0,12.16 0.19,12.5 0.51,12.69L9.42,18.03C9.74,18.22 10.15,18.22 10.47,18.04C10.8,17.85 11.01,17.5 11.01,17.13L11.01,6.39C11.01,6.02 10.81,5.67 10.5,5.49L1.59,0.15C1.27,-0.04 0.86,-0.05 0.53,0.14Z " /><path id="路径_1660" fill-rule="evenodd" style="fill:#049419" transform="translate(1.0978326913195815 0)  rotate(0 10.013667308680283 6.419068962378242)" opacity="1" d="M19.52 5.52L10.55 0.15C10.22 -0.05 9.81 -0.05 9.47 0.15L0.51 5.52C0.19 5.71 0 6.05 0 6.42C0 6.79 10.24 12.5 10.55 12.69L9.47 12.69C9.81 12.89 10.22 12.89 10.55 12.69L19.52 7.32C19.83 7.13 20.03 6.79 20.03 6.42C20.03 6.05 19.83 5.71 19.52 5.52Z" /><path id="路径_1662" fill-rule="evenodd" style="fill:#049419" transform="translate(11.587737749071266 7.220823577128002)  rotate(60 5.503501341666947 9.086902515233533)" opacity="1" d="M0.53,0.14C0.2,0.32 0,0.67 0,1.05L0,11.79C0,12.16 0.19,12.5 0.51,12.69L9.42,18.03C9.74,18.22 10.15,18.22 10.47,18.04C10.8,17.85 11.01,17.5 11.01,17.13L11.01,6.39C11.01,6.02 10.81,5.67 10.5,5.49L1.59,0.15C1.27,-0.04 0.86,-0.05 0.53,0.14Z " /></g><g opacity="1" transform="translate(0 16.844333644995096)  rotate(0 39.68328795866944 12.252887150876633)"><path id="路径_1663" fill-rule="evenodd" style="fill:#049419" transform="translate(0 0)  rotate(0 39.68328795866944 12.252887150876635)" opacity="1" d="M39.21,24.38C39.34,24.46 39.49,24.51 39.65,24.51C39.81,24.51 39.97,24.46 40.11,24.37L78.95,1.58C79.35,1.34 79.49,0.82 79.25,0.42C79.01,0.02 78.49,-0.12 78.09,0.12L39.65,22.67L1.27,0.19C0.86,-0.03 0.35,0.1 0.12,0.5C-0.12,0.9 0.01,1.42 0.41,1.66L39.21,24.38Z " /></g><g opacity="1" transform="translate(8.736828892779393 16.919148841994662)  rotate(0 30.90682578626195 9.823478365320513)"><path id="路径_1664" fill-rule="evenodd" style="fill:#049419" transform="translate(0 0)  rotate(0 30.906825786261955 9.823478365320513)" opacity="1" d="M30.91,19.65C31.08,19.65 31.24,19.6 31.38,19.51L61.4,1.59C61.8,1.35 61.93,0.82 61.69,0.42C61.45,0.02 60.93,-0.11 60.53,0.13L30.91,17.81L1.29,0.13C1.03,-0.03 0.71,-0.04 0.44,0.11C0.17,0.25 0,0.53 0,0.84C0,1.15 0.16,1.43 0.42,1.58L30.46,19.52C30.6,19.6 30.75,19.65 30.91,19.65Z " /></g><g opacity="1" transform="translate(16.702806334653033 16.8432128887109)  rotate(0 22.896945168585148 7.460446005298195)"><g opacity="1" transform="translate(0 0)  rotate(0 22.896945168585148 7.460446005298195)"><path id="路径_1665" fill-rule="evenodd" style="fill:#049419" transform="translate(0 0)  rotate(0 22.896945168585148 7.460446005298195)" opacity="1" d="M22.5,14.79C22.63,14.88 22.79,14.92 22.95,14.92C23.11,14.92 23.27,14.87 23.41,14.78L45.38,1.58C45.78,1.34 45.91,0.82 45.67,0.41C45.43,0.01 44.91,-0.12 44.51,0.12L22.95,13.08L1.29,0.14C0.88,-0.1 0.36,0.03 0.12,0.43C-0.12,0.83 0.01,1.35 0.41,1.59L22.5,14.79Z " /></g></g><g opacity="1" transform="translate(37.162806704196925 31.75810286309949)  rotate(0 2.510499999999979 3.8794999999999504)"><path id="路径_1666" fill-rule="evenodd" style="fill:#CCCCCC" transform="translate(0 0)  rotate(0 2.510499999999979 3.8794999999999504)" opacity="1" d="M5.02,3.43L2.48,0L0,3.46L2.48,7.76L5.02,3.43Z " /><path id="路径_1666" fill-rule="evenodd" style="fill:#049419" transform="translate(0 0)  rotate(0 2.510499999999979 3.8794999999999504)" opacity="1" d="M5.02,3.43L2.48,0L0,3.46L2.48,7.76L5.02,3.43Z " /></g></g></svg>