<svg xmlns="http://www.w3.org/2000/svg" xmlns:xlink="http://www.w3.org/1999/xlink" width="213" height="42" viewBox="0 0 213 42" fill="none"><g opacity="1" transform="translate(0.00391595205314843 0.0000012323595370844487)  rotate(0 106.03090335209863 20.675053973374183)"><g opacity="1" transform="translate(87.67929480407798 1.4730414391353293)  rotate(0 62.19125595005964 5.71285163909206)"><g opacity="1" transform="translate(0 0.02967172321898559)  rotate(0 6.322230229751549 5.698015777482567)"><path id="路径_1648" fill-rule="evenodd" style="fill:#049419" transform="translate(0 0)  rotate(0 6.322230229751549 5.698015777482567)" opacity="1" d="M0.18,10.24C-0.03,10.44 -0.06,10.76 0.1,11C0.28,11.27 0.59,11.42 0.91,11.39L11.4,11.39L11.73,10.34C11.78,10.08 11.69,9.81 11.49,9.64C11.27,9.44 10.98,9.33 10.68,9.34L4.75,9.34L12.43,1.32C12.67,1.1 12.72,0.72 12.52,0.44C12.32,0.14 11.97,-0.03 11.61,0L3.38,0C3.11,0 2.85,0.07 2.62,0.22C2.41,0.35 2.26,0.55 2.2,0.79L1.91,1.98L8.24,1.98L0.18,10.24Z " /></g><g opacity="1" transform="translate(15.611511900118714 0.011656359123970006)  rotate(0 6.999500000000012 5.6907650324200745)"><path id="路径_1649" fill-rule="evenodd" style="fill:#049419" transform="translate(-1.721733333333333 0)  rotate(0 6.882841666666678 5.6907650324200745)" opacity="1" d="M0,11.38L3.06,11.38L3.92,6.52L9.56,6.52L8.79,11.38C9.42,11.38 9.92,11.38 10.32,11.38C10.72,11.37 11.08,11.37 11.38,11.37L11.85,11.37L13.77,0.01L12.22,0.01C11.82,0 11.42,0.12 11.08,0.35C10.78,0.54 10.57,0.85 10.49,1.2L9.93,4.42L4.29,4.42L5.07,0L3.21,0C2.89,-0.01 2.58,0.08 2.31,0.26C2.07,0.41 1.91,0.66 1.85,0.93C1.72,1.65 1.56,2.57 1.36,3.71C1.15,4.85 0.94,6 0.74,7.17C0.53,8.34 0.29,9.74 0,11.37L0,11.38Z " /></g><g opacity="1" transform="translate(31.623511900118896 0.004331142808382538)  rotate(0 6.457499999999984 5.702095527620315)"><path id="路径_1650" fill-rule="evenodd" style="fill:#049419" transform="translate(-1.9886000000000053 0)  rotate(0 6.349874999999984 5.702095527620315)" opacity="1" d="M4.87,1.61L11.44,1.61C11.7,1.61 11.95,1.53 12.17,1.39C12.36,1.26 12.5,1.06 12.55,0.83L12.7,0L4.04,0C3.5,-0.01 2.98,0.14 2.53,0.44C2.14,0.69 1.86,1.1 1.76,1.56L0,11.4L9.21,11.4C9.61,11.41 10.01,11.29 10.34,11.06C10.64,10.86 10.85,10.55 10.92,10.19L11,9.55L3.41,9.55L4.02,6.42L10.72,6.42L11.05,4.55L4.35,4.55L4.87,1.61Z " /></g><g opacity="1" transform="translate(45.5375119001191 0)  rotate(0 7.8204999999999245 5.689530711982059)"><path id="路径_1651" fill-rule="evenodd" style="fill:#049419" transform="translate(-2.2205000000000155 0)  rotate(0 7.690158333333259 5.689530711982059)" opacity="1" d="M3.09,11.38L4.59,2.38L9.03,11.38L13.1,11.38L15.38,0.06L12.23,0.06L10.54,8.38L10.52,8.38C10.47,8.27 10.25,7.8 9.85,6.95C9.45,6.11 8.99,5.15 8.48,4.07C7.96,2.99 7.5,2.05 7.1,1.24C6.61,0.43 5.72,-0.04 4.79,0L1.89,0L0,11.38L3.09,11.38Z " /></g><g opacity="1" transform="translate(67.08751190011897 0.0034694636518679545)  rotate(0 6.40849999999989 5.697295980156127)"><path id="路径_1652" fill-rule="evenodd" style="fill:#049419" transform="translate(-2.579666666666668 0)  rotate(0 6.301691666666558 5.697295980156127)" opacity="1" d="M4.06,0C3.52,-0.01 3,0.14 2.55,0.45C2.15,0.7 1.87,1.1 1.78,1.57L0,11.39L3.11,11.39L4.04,6.42L10.64,6.42L10.97,4.54L4.37,4.54L4.89,1.84L11.34,1.84C11.6,1.85 11.86,1.77 12.08,1.63C12.27,1.5 12.41,1.3 12.47,1.08L12.6,0L4.06,0Z " /></g><g opacity="1" transform="translate(80.2755119001189 0.004331142808382538)  rotate(0 6.457499999999982 5.702095527620315)"><path id="路径_1653" fill-rule="evenodd" style="fill:#049419" transform="translate(-2.7994666666666888 0)  rotate(0 6.349874999999982 5.702095527620315)" opacity="1" d="M11,9.55L3.41,9.55L4.02,6.42L10.72,6.42L11.05,4.55L4.36,4.55L4.87,1.61L11.44,1.61C11.7,1.61 11.95,1.54 12.17,1.39C12.37,1.26 12.5,1.06 12.55,0.83L12.7,0L4.04,0C3.51,-0.01 2.98,0.14 2.54,0.44C2.14,0.69 1.86,1.1 1.76,1.56L0,11.4L9.21,11.4C9.61,11.41 10.01,11.29 10.34,11.06C10.64,10.86 10.85,10.55 10.92,10.19L11,9.55Z " /></g><g opacity="1" transform="translate(94.19151190011884 0)  rotate(0 7.818499999999972 5.689530711982059)"><path id="路径_1654" fill-rule="evenodd" style="fill:#049419" transform="translate(-3.031400000000019 0)  rotate(0 7.688191666666638 5.689530711982059)" opacity="1" d="M10.53,8.38L10.52,8.38C10.47,8.27 10.25,7.8 9.85,6.95C9.45,6.11 8.99,5.15 8.48,4.07C7.96,2.99 7.5,2.05 7.1,1.24C6.61,0.43 5.72,-0.04 4.79,0L1.89,0L0,11.38L3.09,11.38L4.59,2.38L9.03,11.38L13.1,11.38L15.38,0.06L12.23,0.06L10.53,8.38Z " /></g><g opacity="1" transform="translate(111.51321517516325 0.002881665302277625)  rotate(0 6.434648362478015 5.703880600628736)"><path id="路径_1655" fill-rule="evenodd" style="fill:#049419" transform="translate(-3.3200950545840726 0)  rotate(0 6.327404223103381 5.703880600628736)" opacity="1" d="M10.48,2.18C10.84,2.3 11.22,2.3 11.58,2.18C11.91,2.09 12.19,1.87 12.36,1.56L12.65,0.97C11.92,0.64 11.15,0.37 10.36,0.17C9.99,0.1 9.62,0.06 9.24,0.04C8.82,0.01 8.46,0 8.15,0C7.2,-0.02 6.25,0.11 5.34,0.4C5.27,0.42 5.21,0.44 5.14,0.46C5.12,0.47 5.11,0.47 5.09,0.48C4.29,0.72 3.54,1.08 2.85,1.56C2.13,2.04 1.52,2.66 1.05,3.38C0.57,4.12 0.25,4.95 0.1,5.82C-0.05,6.6 -0.03,7.4 0.17,8.17C0.36,8.85 0.74,9.46 1.25,9.93C1.85,10.44 2.55,10.81 3.3,11.02C4.25,11.3 5.23,11.42 6.22,11.41C6.6,11.41 6.98,11.39 7.37,11.37C7.75,11.34 8.12,11.3 8.5,11.23C8.71,11.21 8.95,11.17 9.21,11.12C9.47,11.06 9.69,11.01 9.88,10.96C10.09,10.89 10.3,10.83 10.49,10.78C10.69,10.73 10.92,10.66 11.18,10.58L12.12,5.66C12.15,5.56 12.15,5.46 12.12,5.36C12.1,5.28 12.06,5.2 12.01,5.14C11.95,5.07 11.87,5.02 11.79,4.99C11.69,4.97 11.6,4.95 11.5,4.95L7.86,4.95C7.61,4.95 7.36,5.02 7.15,5.15C6.96,5.26 6.82,5.44 6.76,5.65L6.49,6.65L9.13,6.65L8.57,9.2C8.27,9.32 7.97,9.41 7.66,9.47C7.34,9.52 7.03,9.55 6.71,9.55C6.12,9.55 5.54,9.47 4.98,9.3C4.51,9.16 4.08,8.91 3.73,8.57C3.41,8.24 3.17,7.82 3.05,7.36C2.93,6.81 2.92,6.24 3.03,5.69C3.13,5.14 3.33,4.6 3.63,4.13C3.92,3.65 4.3,3.23 4.75,2.91C5.21,2.55 5.73,2.29 6.28,2.12C6.88,1.93 7.52,1.83 8.16,1.84C8.71,1.83 9.26,1.89 9.8,2C10.03,2.05 10.26,2.11 10.48,2.18Z " /></g></g><g opacity="1" transform="translate(100.77749003753017 21.842803004391893)  rotate(0 43.52921666666683 7.591152933090086)"><path id="路径_1656" fill-rule="evenodd" style="fill:#049419" transform="translate(0 0.01525158552863104)  rotate(0 9.733524999999899 7.581167682010289)" opacity="1" d="M1.48 2.70104L0 15.161L2.77 15.161L4.32 2.16104L2.03 2.16104C1.89 2.16104 1.76 2.21104 1.66 2.31104C1.56 2.41104 1.49 2.55104 1.48 2.70104Z M4.70417 6.7016L4.95417 6.7016L4.02417 14.5816L4.98417 14.5816C5.40417 14.6216 5.81417 14.4916 6.14417 14.2316C6.44417 13.8916 6.60417 13.4616 6.60417 13.0016L7.42417 5.8716C7.43417 5.7816 7.41417 5.6916 7.36417 5.6216C7.31417 5.5516 7.23417 5.5016 7.15417 5.5016L6.80417 5.5116L8.04417 0.811603C8.07417 0.601603 8.01417 0.391603 7.88417 0.231603C7.77417 0.0816025 7.59417 -0.00839747 7.41417 0.00160253L2.22417 0.00160253C2.08417 0.00160253 1.94417 0.0416025 1.84417 0.131603C1.73417 0.231603 1.66417 0.371603 1.63417 0.521603L1.52417 1.4816L5.55417 1.4816L4.40417 6.2416C4.36417 6.3516 4.38417 6.4616 4.44417 6.5516C4.49417 6.6516 4.59417 6.7016 4.70417 6.7016Z M14.0727 0L11.2227 0C11.1227 0 11.0427 0.06 11.0127 0.15L10.6627 0.89L9.16273 0.89C8.99273 0.89 8.83273 0.96 8.72273 1.1C8.58273 1.22 8.50273 1.39 8.48273 1.58L8.38273 2.46L10.0127 2.46L7.94273 7.53C7.83273 7.76 7.78273 8 7.76273 8.24C7.76273 8.45 7.79273 8.66 7.87273 8.85C7.95273 9.03 8.07273 9.19 8.24273 9.29C8.40273 9.39 8.59273 9.44 8.77273 9.43L12.7627 9.43L12.5127 11.48L8.09273 11.48C7.92273 11.47 7.75273 11.54 7.63273 11.67C7.50273 11.81 7.41273 11.99 7.38273 12.19L7.27273 13.02L12.3327 13.02L12.0727 15.16L14.8227 15.16C14.9427 15.17 15.0627 15.12 15.1627 15.04L15.1627 15.03C15.2527 14.93 15.3027 14.8 15.3227 14.66L15.5227 13.02L17.6427 13.02C17.7427 13.02 17.8327 13.01 17.9227 12.99C18.0127 12.97 18.1027 12.93 18.1827 12.88C18.3227 12.75 18.4027 12.58 18.4227 12.39L18.5327 11.48L15.7127 11.48L15.9527 9.43L18.2027 9.43C18.3227 9.43 18.4427 9.38 18.5327 9.29C18.6227 9.2 18.6927 9.08 18.7027 8.95L18.8427 7.79L16.1527 7.79L16.6927 3.46L13.9427 3.46C13.8327 3.46 13.7327 3.5 13.6727 3.59C13.5927 3.66 13.5327 3.77 13.5127 3.88L12.9627 7.79L11.3427 7.79C11.2327 7.8 11.1227 7.75 11.0527 7.66C10.9927 7.55 10.9927 7.42 11.0527 7.31L13.0527 2.46L18.7727 2.46C18.9227 2.46 19.0727 2.4 19.1827 2.29C19.2927 2.16 19.3627 2.01 19.3827 1.85L19.4627 0.89L13.6627 0.89L14.0727 0Z " /><g opacity="1" transform="translate(22.17023333333293 0)  rotate(0 9.963944110359833 7.590226263908619)"><path id="路径_1657" fill-rule="evenodd" style="fill:#049419" transform="translate(0 0.004299858707440762)  rotate(0 2.6112416666668516 7.5880763345548985)" opacity="1" d="M2.04,0L0,15.18L1.38,15.18C1.87,15.18 2.34,15 2.71,14.66C3.08,14.34 3.33,13.9 3.4,13.41L5.22,0L2.04,0Z " /><path id="路径_1657" fill-rule="evenodd" style="fill:#049419" transform="translate(3.734700000000231 2.6592998587074135)  rotate(0 5.895083333333449 5.577767974241567)" opacity="1" d="M4.83,0L2.04,0L4.56,5.3L0,11.15L1.39,11.15C2.46,11.15 3.46,10.65 4.12,9.8L5.73,7.74L6.9,10.22C7.22,10.82 7.85,11.18 8.51,11.15L10.43,11.15L7.64,5.3L11.79,0L9.06,0C8.83,0 8.61,0.11 8.47,0.29L6.47,2.85L5.24,0.24C5.16,0.09 5,-0.01 4.83,0Z " /><path id="路径_1657" fill-rule="evenodd" style="fill:#049419" transform="translate(5.52338333333374 0)  rotate(0 7.202252443692962 7.588710713874889)" opacity="1" d="M0.21,0L0,1.51L11.08,1.51L9.45,13.41C9.37,13.86 9.5,14.32 9.79,14.66C10.1,15.01 10.54,15.19 11,15.18L13.15,15.18L13.28,14.24C13.29,14.15 13.26,14.05 13.2,13.98C13.14,13.91 13.05,13.87 12.96,13.88C12.86,13.88 12.77,13.84 12.69,13.77C12.63,13.7 12.6,13.6 12.61,13.5L14.4,0.37C14.41,0.27 14.39,0.17 14.33,0.1C14.27,0.03 14.19,0 14.1,0L0.21,0Z " /></g><g opacity="1" transform="translate(44.92456666666659 0.019299858707654494)  rotate(0 9.749749999999967 7.5815000000000055)"><path id="路径_1658" fill-rule="evenodd" style="fill:#049419" transform="translate(0 5.745999999999981)  rotate(0 1.8270333333332813 4.706999999999937)" opacity="1" d="M1.55,0.72L0,9.41C0.55,9.41 1.08,9.21 1.49,8.83C1.92,8.46 2.22,7.95 2.34,7.39L3.65,0L2.38,0C2.18,0 2,0.08 1.85,0.21C1.69,0.34 1.59,0.52 1.55,0.72Z " /><path id="路径_1658" fill-rule="evenodd" style="fill:#049419" transform="translate(1.2842333333333613 0)  rotate(0 4.6865666666665176 7.580499999999972)" opacity="1" d="M2.92,4.97L1.6,15.16L4.12,15.16C4.27,15.16 4.41,15.1 4.51,14.98C4.63,14.87 4.71,14.73 4.74,14.57L5.96,4.97L8.11,4.97C8.31,4.97 8.51,4.89 8.66,4.75C8.82,4.59 8.92,4.39 8.95,4.17L9.03,3.61L6.14,3.61L6.43,1.29L8.33,1.29C8.58,1.28 8.82,1.18 8.99,1C9.18,0.81 9.31,0.57 9.34,0.31L9.37,0L1.56,0C1.33,0 1.11,0.09 0.95,0.26C0.78,0.43 0.67,0.66 0.64,0.9L0.59,1.29L3.39,1.29L3.07,3.61L0.75,3.61C0.58,3.61 0.43,3.68 0.32,3.8C0.2,3.91 0.12,4.07 0.1,4.23L0,4.97L2.92,4.97Z " /><path id="路径_1658" fill-rule="evenodd" style="fill:#049419" transform="translate(6.857838780656408 5.7457270594566126)  rotate(0 1.3530790837251192 4.707978674718561)" opacity="1" d="M0.74,0L0.01,7.95C-0.03,8.33 0.09,8.71 0.34,9C0.58,9.27 0.93,9.43 1.29,9.42L1.88,9.42L2.7,0.52C2.72,0.38 2.68,0.25 2.59,0.15C2.51,0.05 2.39,0 2.26,0L0.74,0Z " /><path id="路径_1658" fill-rule="evenodd" style="fill:#049419" transform="translate(9.528499999999838 0.03600000000005821)  rotate(0 4.985500000000049 7.563499999999976)" opacity="1" d="M5.18,15.13L7.85,15.13L8.2,12.58L9.09,12.58C9.2,12.59 9.31,12.55 9.4,12.47C9.48,12.39 9.54,12.28 9.56,12.17L9.72,11.04L8.42,11.04L9.97,0L8.12,0C7.9,0 7.68,0.09 7.52,0.24C7.34,0.38 7.22,0.59 7.2,0.82L5.75,11.04L0.79,11.04C0.64,11.04 0.48,11.1 0.36,11.2C0.25,11.31 0.17,11.45 0.14,11.6L0,12.58L5.53,12.58L5.18,15.13Z " /><path id="路径_1658" fill-rule="evenodd" style="fill:#049419" transform="translate(10.389184715057894 5.468999999999937)  rotate(0 2.4896659758042325 1.8745000000000118)" opacity="1" d="M4.98,2.03L0.04,0C-0.15,0.98 0.36,1.96 1.26,2.35L4.63,3.75L4.98,2.03Z " /><path id="路径_1658" fill-rule="evenodd" style="fill:#049419" transform="translate(11.130575604874537 0.7539999999999054)  rotate(0 2.3982371975626826 2.027500000000032)" opacity="1" d="M4.8,2.17L0.08,0L0.03,0.24C-0.12,1.17 0.34,2.08 1.17,2.49L4.44,4.06L4.8,2.17Z " /></g><g opacity="1" transform="translate(67.15675000000029 0.005283830870212114)  rotate(0 9.950841666666687 7.58851101765498)"><path id="路径_1659" fill-rule="evenodd" style="fill:#049419" transform="translate(0 0.07998749612352185)  rotate(0 4.006099999999956 7.51602390808938)" opacity="1" d="M1.41,1.71C1.3,1.81 1.22,1.95 1.21,2.11L1.1,2.93L2.82,2.93L1.98,9L0.71,9.1C0.58,9.11 0.45,9.17 0.35,9.26C0.26,9.35 0.19,9.48 0.17,9.61L0.05,10.59L1.77,10.45L1.41,13.18C1.39,13.34 1.31,13.49 1.19,13.6C1.07,13.7 0.93,13.76 0.78,13.76L0.17,13.76L0,15.03L2.64,15.03C3.11,15.03 3.56,14.86 3.91,14.53C4.28,14.21 4.51,13.76 4.57,13.28L4.99,10.22L6.47,10.09C6.58,10.08 6.68,10.03 6.75,9.96C6.83,9.88 6.88,9.78 6.9,9.67L7.04,8.61L5.19,8.76L5.98,2.93L7.22,2.93C7.39,2.93 7.55,2.87 7.68,2.75C7.8,2.64 7.88,2.48 7.91,2.32L8.01,1.56L6.18,1.56L6.4,0L3.71,0C3.57,0 3.44,0.05 3.34,0.14C3.24,0.23 3.17,0.36 3.15,0.5L3,1.56L1.82,1.56C1.67,1.56 1.53,1.61 1.41,1.71Z " /><path id="路径_1659" fill-rule="evenodd" style="fill:#049419" transform="translate(6.666016666666451 0)  rotate(0 6.617833333333462 7.58851101765498)" opacity="1" d="M3.02,15.18C3.61,15.18 4.16,14.92 4.56,14.49L6.03,12.81L6.87,14.05C7.35,14.76 8.13,15.18 8.98,15.18L11.34,15.18L8.23,10.48L12.29,5.91L12.51,4.28L8.73,4.28L9.03,2.27L12.59,2.27C12.71,2.27 12.84,2.23 12.93,2.14C13.03,2.06 13.09,1.94 13.11,1.82L13.24,0.85L9.22,0.85L9.34,0L6.57,0C6.46,0 6.35,0.04 6.26,0.12C6.17,0.2 6.11,0.31 6.1,0.43L6.03,0.85L2.48,0.86C2.35,0.85 2.22,0.9 2.12,0.99C2.03,1.08 1.96,1.2 1.94,1.34L1.82,2.27L5.84,2.27L5.54,4.28L2.2,4.28C2.09,4.28 1.99,4.32 1.91,4.39C1.83,4.45 1.78,4.55 1.77,4.65L1.64,5.55L8.66,5.55L6.38,8.24L5.25,6.7C5.15,6.53 4.97,6.44 4.78,6.44L1.42,6.44L4.26,10.35L0,15.18L3.02,15.18Z " /></g></g><g opacity="1" transform="translate(0 0)  rotate(0 39.68328795866944 20.675053973374183)"><path id="路径_1660" fill-rule="evenodd" style="fill:#049419" transform="translate(29.120842183994636 0)  rotate(0 9.846772853535612 6.419068962378242)" opacity="1" d="M19.19 5.52L10.38 0.15C10.05 -0.05 9.64 -0.05 9.32 0.15L0.5 5.52C0.19 5.71 0 6.05 0 6.42C0 6.79 10.07 12.5 10.38 12.69L9.32 12.69C9.64 12.89 10.05 12.89 10.38 12.69L19.19 7.32C19.5 7.13 19.69 6.79 19.69 6.42C19.69 6.05 19.5 5.71 19.19 5.52Z" /><g opacity="1" transform="translate(39.0280900369158 7.316601976270636)  rotate(0 5.4132500003072 9.087119305341162)"><path id="路径_1661" fill-rule="evenodd" style="fill:#049419" transform="translate(0 0)  rotate(0 5.4132500003072 9.087119305341162)" opacity="1" d="M0.5,5.49C0.19,5.67 0,6.02 0,6.39L0,17.13C0,17.5 0.2,17.85 0.52,18.04C0.85,18.22 1.24,18.22 1.56,18.03L10.32,12.69C10.64,12.5 10.83,12.16 10.83,11.79L10.83,1.05C10.83,0.67 10.63,0.32 10.3,0.14C9.98,-0.05 9.58,-0.04 9.26,0.15L0.5,5.49Z " /></g><g opacity="1" transform="translate(28.041306704197076 7.315602550510267)  rotate(0 5.411776319305831 9.086902515233533)"><path id="路径_1662" fill-rule="evenodd" style="fill:#049419" transform="translate(0 0)  rotate(0 5.411776319305831 9.086902515233533)" opacity="1" d="M0.52,0.14C0.2,0.32 0,0.67 0,1.05L0,11.79C0,12.16 0.19,12.5 0.5,12.69L9.26,18.03C9.58,18.22 9.98,18.22 10.3,18.04C10.62,17.85 10.82,17.5 10.82,17.13L10.82,6.39C10.82,6.02 10.63,5.67 10.32,5.49L1.56,0.15C1.24,-0.04 0.85,-0.05 0.52,0.14Z " /></g><g opacity="1" transform="translate(-0.00021988826338570355 16.8443336449951)  rotate(0 39.02189982602495 12.252887150876635)"><path id="路径_1663" fill-rule="evenodd" style="fill:#049419" transform="translate(0 0)  rotate(0 39.02189982602495 12.252887150876635)" opacity="1" d="M38.55,24.38C38.69,24.46 38.84,24.51 38.99,24.51C39.15,24.51 39.3,24.46 39.44,24.37L77.63,1.58C78.03,1.34 78.16,0.82 77.93,0.42C77.7,0.02 77.18,-0.12 76.79,0.12L38.99,22.67L1.24,0.19C0.85,-0.03 0.34,0.1 0.11,0.5C-0.12,0.9 0.01,1.42 0.4,1.66L38.55,24.38Z " /></g><g opacity="1" transform="translate(8.59099518963635 16.919148841994666)  rotate(0 30.391712023157588 9.823478365320513)"><path id="路径_1664" fill-rule="evenodd" style="fill:#049419" transform="translate(0 0)  rotate(0 30.391712023157588 9.823478365320513)" opacity="1" d="M30.4,19.65C30.56,19.65 30.72,19.6 30.85,19.51L60.38,1.59C60.77,1.35 60.9,0.82 60.67,0.42C60.43,0.02 59.92,-0.11 59.52,0.13L30.4,17.81L1.27,0.13C1.02,-0.03 0.69,-0.04 0.43,0.11C0.17,0.25 0,0.53 0,0.84C0,1.15 0.16,1.43 0.42,1.58L29.96,19.52C30.09,19.6 30.24,19.65 30.4,19.65Z " /></g><g opacity="1" transform="translate(16.424206340812095 16.843212888710905)  rotate(0 22.515329415775398 7.460446005298195)"><g opacity="1" transform="translate(0 0)  rotate(0 22.515329415775398 7.460446005298195)"><path id="路径_1665" fill-rule="evenodd" style="fill:#049419" transform="translate(0 0)  rotate(0 22.515329415775394 7.460446005298195)" opacity="1" d="M22.12,14.79C22.26,14.88 22.41,14.92 22.56,14.92C22.73,14.92 22.89,14.87 23.02,14.78L44.62,1.58C45.02,1.34 45.15,0.82 44.91,0.41C44.67,0.01 44.16,-0.12 43.77,0.12L22.56,13.08L1.26,0.14C0.87,-0.1 0.36,0.03 0.12,0.43C-0.12,0.83 0.01,1.35 0.41,1.59L22.12,14.79Z " /></g></g><g opacity="1" transform="translate(36.54320670419692 31.758102863099495)  rotate(0 2.4686583333333125 3.8794999999999504)"><path id="路径_1666" fill-rule="evenodd" style="fill:#049419" transform="translate(0 0)  rotate(0 2.4686583333333125 3.8794999999999504)" opacity="1" d="M4.94,3.43L2.44,0L0,3.46L2.44,7.76L4.94,3.43Z " /></g></g></g></svg>